<svg preserveAspectRatio="none" width="100%" height="100%" overflow="visible" style="display: block;" viewBox="0 0 40 40" fill="none" xmlns="http://www.w3.org/2000/svg">
<g id="Frame">
<path id="Vector" d="M18.3333 20C16.5 20 14.9306 19.3472 13.625 18.0417C12.3194 16.7361 11.6667 15.1667 11.6667 13.3333C11.6667 11.5 12.3194 9.93056 13.625 8.625C14.9306 7.31944 16.5 6.66667 18.3333 6.66667C20.1667 6.66667 21.7361 7.31944 23.0417 8.625C24.3472 9.93056 25 11.5 25 13.3333C25 15.1667 24.3472 16.7361 23.0417 18.0417C21.7361 19.3472 20.1667 20 18.3333 20ZM18.3333 16.6667C19.25 16.6667 20.035 16.3406 20.6883 15.6883C21.3417 15.0361 21.6678 14.2511 21.6667 13.3333C21.6656 12.4156 21.3394 11.6311 20.6883 10.98C20.0372 10.3289 19.2522 10.0022 18.3333 10C17.4144 9.99778 16.63 10.3244 15.98 10.98C15.33 11.6356 15.0033 12.42 15 13.3333C14.9967 14.2467 15.3233 15.0317 15.98 15.6883C16.6367 16.345 17.4211 16.6711 18.3333 16.6667ZM36.8333 39.1667L31.5 33.8333C30.9167 34.1667 30.2917 34.4444 29.625 34.6667C28.9583 34.8889 28.25 35 27.5 35C25.4167 35 23.6461 34.2711 22.1883 32.8133C20.7306 31.3556 20.0011 29.5844 20 27.5C19.9989 25.4156 20.7283 23.645 22.1883 22.1883C23.6483 20.7317 25.4189 20.0022 27.5 20C29.5811 19.9978 31.3522 20.7272 32.8133 22.1883C34.2744 23.6494 35.0033 25.42 35 27.5C35 28.25 34.8889 28.9583 34.6667 29.625C34.4444 30.2917 34.1667 30.9167 33.8333 31.5L39.1667 36.8333L36.8333 39.1667ZM30.4583 30.4583C31.2639 29.6528 31.6667 28.6667 31.6667 27.5C31.6667 26.3333 31.2639 25.3472 30.4583 24.5417C29.6528 23.7361 28.6667 23.3333 27.5 23.3333C26.3333 23.3333 25.3472 23.7361 24.5417 24.5417C23.7361 25.3472 23.3333 26.3333 23.3333 27.5C23.3333 28.6667 23.7361 29.6528 24.5417 30.4583C25.3472 31.2639 26.3333 31.6667 27.5 31.6667C28.6667 31.6667 29.6528 31.2639 30.4583 30.4583ZM5 33.3333V28.7083C5 27.7639 5.23611 26.8889 5.70833 26.0833C6.18056 25.2778 6.83333 24.6667 7.66667 24.25C9.08333 23.5278 10.6806 22.9167 12.4583 22.4167C14.2361 21.9167 16.2083 21.6667 18.375 21.6667C18.0417 22.1667 17.7567 22.7017 17.52 23.2717C17.2833 23.8417 17.0961 24.4317 16.9583 25.0417C15.2917 25.1806 13.8056 25.4656 12.5 25.8967C11.1944 26.3278 10.0972 26.7789 9.20833 27.25C8.93056 27.3889 8.71556 27.5906 8.56333 27.855C8.41111 28.1194 8.33444 28.4039 8.33333 28.7083V30H16.9583C17.0972 30.6111 17.285 31.1944 17.5217 31.75C17.7583 32.3056 18.0428 32.8333 18.375 33.3333H5Z" fill="var(--fill-0, white)"/>
</g>
</svg>
