<svg preserveAspectRatio="none" width="100%" height="100%" overflow="visible" style="display: block;" viewBox="0 0 34 34" fill="none" xmlns="http://www.w3.org/2000/svg">
<g id="Frame">
<path id="Vector" d="M5.44708 5.44708C4.68121 6.21302 4.25096 7.25181 4.25096 8.33496C4.25096 9.41811 4.68121 10.4569 5.44708 11.2228L7.69533 13.4725L7.74917 13.4158L13.4158 7.74917L13.4725 7.69533L11.2228 5.44708C10.4569 4.68121 9.41811 4.25096 8.33496 4.25096C7.25181 4.25096 6.21302 4.68121 5.44708 5.44708ZM14.9713 9.19417L14.9175 9.25083L9.25083 14.9175L9.19417 14.9713L22.7772 28.5543C23.5477 29.299 24.5798 29.7112 25.6513 29.7021C26.7228 29.6929 27.7478 29.2632 28.5055 28.5055C29.2632 27.7478 29.6929 26.7228 29.7021 25.6513C29.7112 24.5798 29.299 23.5477 28.5543 22.7772L14.9713 9.19417ZM22.8083 3.26825C22.8584 3.13989 22.946 3.02963 23.0598 2.9519C23.1735 2.87417 23.3081 2.83258 23.4458 2.83258C23.5836 2.83258 23.7182 2.87417 23.8319 2.9519C23.9457 3.02963 24.0333 3.13989 24.0833 3.26825L24.6925 4.8195C24.7264 4.90735 24.7781 4.98722 24.8444 5.05403C24.9107 5.12085 24.9902 5.17317 25.0778 5.20767L26.6234 5.81967C26.7514 5.87065 26.8612 5.95886 26.9385 6.07289C27.0158 6.18692 27.0571 6.32152 27.0571 6.45929C27.0571 6.59706 27.0158 6.73167 26.9385 6.8457C26.8612 6.95973 26.7514 7.04793 26.6234 7.09892L25.0792 7.71092C24.9924 7.74653 24.9134 7.79906 24.847 7.86546C24.7806 7.93185 24.7281 8.01079 24.6925 8.09767L24.0833 9.6475C24.0333 9.77586 23.9457 9.88612 23.8319 9.96385C23.7182 10.0416 23.5836 10.0832 23.4458 10.0832C23.3081 10.0832 23.1735 10.0416 23.0598 9.96385C22.946 9.88612 22.8584 9.77586 22.8083 9.6475L22.1992 8.09625C22.1636 8.00937 22.111 7.93044 22.0446 7.86404C21.9782 7.79765 21.8993 7.74511 21.8124 7.7095L20.2682 7.0975C20.1403 7.04652 20.0305 6.95831 19.9532 6.84428C19.8759 6.73025 19.8345 6.59565 19.8345 6.45788C19.8345 6.3201 19.8759 6.1855 19.9532 6.07147C20.0305 5.95744 20.1403 5.86923 20.2682 5.81825L21.8124 5.20625C21.8994 5.17047 21.9784 5.11772 22.0448 5.05108C22.1112 4.98443 22.1637 4.90523 22.1992 4.81808L22.8083 3.26825ZM28.2866 12.9342C28.3366 12.8058 28.4243 12.6956 28.538 12.6178C28.6518 12.5401 28.7863 12.4985 28.9241 12.4985C29.0619 12.4985 29.1964 12.5401 29.3102 12.6178C29.4239 12.6956 29.5115 12.8058 29.5616 12.9342L29.7826 13.4994C29.8534 13.6765 29.9922 13.8168 30.1693 13.8862L30.7332 14.11C30.8607 14.1612 30.97 14.2494 31.047 14.3633C31.124 14.4772 31.1651 14.6115 31.1651 14.7489C31.1651 14.8864 31.124 15.0207 31.047 15.1345C30.97 15.2484 30.8607 15.3366 30.7332 15.3878L30.1693 15.6117C30.0825 15.6473 30.0035 15.6998 29.9371 15.7662C29.8707 15.8326 29.8182 15.9115 29.7826 15.9984L29.5616 16.5651C29.5115 16.6934 29.4239 16.8037 29.3102 16.8814C29.1964 16.9592 29.0619 17.0008 28.9241 17.0008C28.7863 17.0008 28.6518 16.9592 28.538 16.8814C28.4243 16.8037 28.3366 16.6934 28.2866 16.5651L28.0642 15.9984C28.0287 15.9117 27.9764 15.8328 27.9103 15.7664C27.8441 15.7 27.7655 15.6474 27.6788 15.6117L27.115 15.3878C26.9875 15.3366 26.8782 15.2484 26.8012 15.1345C26.7242 15.0207 26.6831 14.8864 26.6831 14.7489C26.6831 14.6115 26.7242 14.4772 26.8012 14.3633C26.8782 14.2494 26.9875 14.1612 27.115 14.11L27.6788 13.8862C27.7655 13.8504 27.8441 13.7978 27.9103 13.7314C27.9764 13.665 28.0287 13.5862 28.0642 13.4994L28.2866 12.9342ZM7.27175 21.6849C7.3218 21.5566 7.40943 21.4463 7.52318 21.3686C7.63692 21.2908 7.77148 21.2492 7.90925 21.2492C8.04702 21.2492 8.18158 21.2908 8.29532 21.3686C8.40907 21.4463 8.4967 21.5566 8.54675 21.6849L8.76917 22.2516C8.80319 22.3392 8.85499 22.4188 8.92132 22.4853C8.98764 22.5519 9.06704 22.604 9.1545 22.6383L9.71833 22.8608C9.84633 22.9117 9.95608 22.9999 10.0334 23.114C10.1107 23.228 10.1521 23.3626 10.1521 23.5004C10.1521 23.6381 10.1107 23.7728 10.0334 23.8868C9.95608 24.0008 9.84633 24.089 9.71833 24.14L9.1545 24.3638C9.06704 24.3982 8.98764 24.4503 8.92132 24.5168C8.85499 24.5834 8.80319 24.663 8.76917 24.7506L8.54675 25.3173C8.4967 25.4456 8.40907 25.5559 8.29532 25.6336C8.18158 25.7113 8.04702 25.7529 7.90925 25.7529C7.77148 25.7529 7.63692 25.7113 7.52318 25.6336C7.40943 25.5559 7.3218 25.4456 7.27175 25.3173L7.04933 24.7506C7.01531 24.663 6.96351 24.5834 6.89718 24.5168C6.83086 24.4503 6.75146 24.3982 6.664 24.3638L6.10017 24.14C5.97217 24.089 5.86242 24.0008 5.7851 23.8868C5.70778 23.7728 5.66645 23.6381 5.66645 23.5004C5.66645 23.3626 5.70778 23.228 5.7851 23.114C5.86242 22.9999 5.97217 22.9117 6.10017 22.8608L6.664 22.6383C6.7516 22.6038 6.83108 22.5515 6.89741 22.4847C6.96374 22.4179 7.01548 22.338 7.04933 22.2502L7.27175 21.6849Z" fill="var(--fill-0, white)"/>
</g>
</svg>
