<svg preserveAspectRatio="none" width="100%" height="100%" overflow="visible" style="display: block;" viewBox="0 0 20.5 20.5" fill="none" xmlns="http://www.w3.org/2000/svg">
<path id="Icon" d="M16.25 1.25C15.4544 1.25 14.6913 1.56607 14.1287 2.12868C13.5661 2.69129 13.25 3.45435 13.25 4.25V16.25C13.25 17.0456 13.5661 17.8087 14.1287 18.3713C14.6913 18.9339 15.4544 19.25 16.25 19.25C17.0456 19.25 17.8087 18.9339 18.3713 18.3713C18.9339 17.8087 19.25 17.0456 19.25 16.25C19.25 15.4544 18.9339 14.6913 18.3713 14.1287C17.8087 13.5661 17.0456 13.25 16.25 13.25H4.25C3.45435 13.25 2.69129 13.5661 2.12868 14.1287C1.56607 14.6913 1.25 15.4544 1.25 16.25C1.25 17.0456 1.56607 17.8087 2.12868 18.3713C2.69129 18.9339 3.45435 19.25 4.25 19.25C5.04565 19.25 5.80871 18.9339 6.37132 18.3713C6.93393 17.8087 7.25 17.0456 7.25 16.25V4.25C7.25 3.45435 6.93393 2.69129 6.37132 2.12868C5.80871 1.56607 5.04565 1.25 4.25 1.25C3.45435 1.25 2.69129 1.56607 2.12868 2.12868C1.56607 2.69129 1.25 3.45435 1.25 4.25C1.25 5.04565 1.56607 5.80871 2.12868 6.37132C2.69129 6.93393 3.45435 7.25 4.25 7.25H16.25C17.0456 7.25 17.8087 6.93393 18.3713 6.37132C18.9339 5.80871 19.25 5.04565 19.25 4.25C19.25 3.45435 18.9339 2.69129 18.3713 2.12868C17.8087 1.56607 17.0456 1.25 16.25 1.25Z" stroke="var(--stroke-0, #F3F3F3)" stroke-width="2.5" stroke-linecap="round" stroke-linejoin="round"/>
</svg>
