<svg preserveAspectRatio="none" width="100%" height="100%" overflow="visible" style="display: block;" viewBox="0 0 34 34" fill="none" xmlns="http://www.w3.org/2000/svg">
<g id="Frame">
<path id="Vector" d="M26.9167 4.25C27.6681 4.25 28.3888 4.54851 28.9201 5.07986C29.4515 5.61122 29.75 6.33189 29.75 7.08333V26.9167C29.75 27.6681 29.4515 28.3888 28.9201 28.9201C28.3888 29.4515 27.6681 29.75 26.9167 29.75H7.08333C6.33189 29.75 5.61122 29.4515 5.07986 28.9201C4.54851 28.3888 4.25 27.6681 4.25 26.9167V7.08333C4.25 6.33189 4.54851 5.61122 5.07986 5.07986C5.61122 4.54851 6.33189 4.25 7.08333 4.25H13.005C13.6 2.60667 15.1583 1.41667 17 1.41667C18.8417 1.41667 20.4 2.60667 20.995 4.25H26.9167ZM17 4.25C16.6243 4.25 16.2639 4.39926 15.9983 4.66493C15.7326 4.93061 15.5833 5.29094 15.5833 5.66667C15.5833 6.04239 15.7326 6.40272 15.9983 6.6684C16.2639 6.93408 16.6243 7.08333 17 7.08333C17.3757 7.08333 17.7361 6.93408 18.0017 6.6684C18.2674 6.40272 18.4167 6.04239 18.4167 5.66667C18.4167 5.29094 18.2674 4.93061 18.0017 4.66493C17.7361 4.39926 17.3757 4.25 17 4.25ZM9.91667 9.91667V7.08333H7.08333V26.9167H26.9167V7.08333H24.0833V9.91667H9.91667ZM17 25.5L9.91667 18.4167H14.1667V12.75H19.8333V18.4167H24.0833L17 25.5Z" fill="var(--fill-0, white)"/>
</g>
</svg>
