<svg preserveAspectRatio="none" width="100%" height="100%" overflow="visible" style="display: block;" viewBox="0 0 34 34" fill="none" xmlns="http://www.w3.org/2000/svg">
<g id="Frame">
<path id="Vector" d="M3.85986 15.1938L0.849447 12.1833C3.02167 10.0819 5.50084 8.47072 8.28695 7.34967C11.0731 6.22861 13.9772 5.66761 16.9994 5.66667C20.0217 5.66572 22.9258 6.22672 25.7119 7.34967C28.4981 8.47261 30.9772 10.0838 33.1494 12.1833L30.139 15.1938C28.3682 13.4938 26.3494 12.1895 24.0828 11.2809C21.8161 10.3724 19.455 9.91761 16.9994 9.91667C14.5439 9.91572 12.1828 10.3705 9.91611 11.2809C7.64945 12.1914 5.6307 13.4956 3.85986 15.1938ZM9.84528 21.1792L6.87028 18.2042C8.26334 16.9056 9.82781 15.9082 11.5637 15.2122C13.2996 14.5161 15.1115 14.1676 16.9994 14.1667C18.8874 14.1657 20.6998 14.5142 22.4366 15.2122C24.1734 15.9101 25.7374 16.9074 27.1286 18.2042L24.1536 21.1792C23.1619 20.2819 22.0584 19.5972 20.8429 19.125C19.6274 18.6528 18.3462 18.4167 16.9994 18.4167C15.6527 18.4167 14.3715 18.6528 13.156 19.125C11.9405 19.5972 10.8369 20.2819 9.84528 21.1792ZM14.9977 27.5018C14.4433 26.9464 14.1661 26.2792 14.1661 25.5C14.1661 24.7208 14.4438 24.0541 14.9991 23.4997C15.5544 22.9453 16.2212 22.6676 16.9994 22.6667C17.7777 22.6657 18.4449 22.9434 19.0012 23.4997C19.5575 24.0559 19.8347 24.7227 19.8328 25.5C19.8309 26.2773 19.5537 26.9445 19.0012 27.5018C18.4487 28.059 17.7814 28.3362 16.9994 28.3333C16.2174 28.3305 15.5507 28.0533 14.9991 27.5018" fill="var(--fill-0, white)"/>
</g>
</svg>
