<svg preserveAspectRatio="none" width="100%" height="100%" overflow="visible" style="display: block;" viewBox="0 0 27.0005 29.7706" fill="none" xmlns="http://www.w3.org/2000/svg">
<path id="Icon" d="M7.50025 4.44393L13.5003 7.9106L19.5002 4.44393M7.50025 25.2173V18.2973L1.50025 14.8306M25.5002 14.8306L19.5002 18.2973V25.2173M1.86025 8.1106L13.5002 14.8439L25.1402 8.1106M13.5002 28.2706V14.8306M25.5002 20.1639V9.49727C25.4998 9.02963 25.3763 8.57035 25.1423 8.16548C24.9083 7.76062 24.5719 7.42442 24.1669 7.1906L14.8336 1.85727C14.4282 1.62322 13.9683 1.5 13.5002 1.5C13.0322 1.5 12.5723 1.62322 12.1669 1.85727L2.83358 7.1906C2.4286 7.42442 2.09222 7.76062 1.8582 8.16548C1.62417 8.57035 1.50073 9.02963 1.50025 9.49727V20.1639C1.50073 20.6316 1.62417 21.0909 1.8582 21.4957C2.09222 21.9006 2.4286 22.2368 2.83358 22.4706L12.1669 27.8039C12.5723 28.038 13.0322 28.1612 13.5002 28.1612C13.9683 28.1612 14.4282 28.038 14.8336 27.8039L24.1669 22.4706C24.5719 22.2368 24.9083 21.9006 25.1423 21.4957C25.3763 21.0909 25.4998 20.6316 25.5002 20.1639Z" stroke="var(--stroke-0, white)" stroke-width="3" stroke-linecap="round" stroke-linejoin="round"/>
</svg>
