<svg preserveAspectRatio="none" width="100%" height="100%" overflow="visible" style="display: block;" viewBox="0 0 16.875 11.875" fill="none" xmlns="http://www.w3.org/2000/svg">
<path id="Icon" fill-rule="evenodd" clip-rule="evenodd" d="M0 0.9375C0 0.419733 0.419733 0 0.9375 0H15.9375C16.4553 0 16.875 0.419733 16.875 0.9375C16.875 1.45527 16.4553 1.875 15.9375 1.875H0.9375C0.419733 1.875 0 1.45527 0 0.9375ZM0 5.9375C0 5.41973 0.419733 5 0.9375 5H15.9375C16.4553 5 16.875 5.41973 16.875 5.9375C16.875 6.45527 16.4553 6.875 15.9375 6.875H0.9375C0.419733 6.875 0 6.45527 0 5.9375ZM0 10.9375C0 10.4197 0.419733 10 0.9375 10H15.9375C16.4553 10 16.875 10.4197 16.875 10.9375C16.875 11.4553 16.4553 11.875 15.9375 11.875H0.9375C0.419733 11.875 0 11.4553 0 10.9375Z" fill="var(--fill-0, #1E1E1E)"/>
</svg>
