<svg preserveAspectRatio="none" width="100%" height="100%" overflow="visible" style="display: block;" viewBox="0 0 202 44" fill="none" xmlns="http://www.w3.org/2000/svg">
<g id="logo">
<path id="Vector" d="M0 0H26.0985C35.5961 0 38.2266 8.19913 38.2266 12.0419C38.2266 20.3493 34.5157 25.9433 25.8212 25.9433H23.3456L38.7524 41.9987H32.0801C28.2868 41.9987 25.5589 40.6503 23.1083 38.1496C20.6577 35.649 10.2858 24.5987 10.2858 24.5987L13.3297 17.2943H26.4582C27.9533 17.2943 29.6632 16.3473 29.6632 14.5043V11.6455C29.6632 10.2613 28.8951 8.62228 26.3471 8.62228H8.54212C4.30541 8.62356 0 5.36328 0 0Z" fill="var(--fill-0, #7847DB)"/>
<g id="text 1">
<path id="Union" d="M89.7588 3.02328H87.2236V4.22641H89.4902V5.15219H87.2236V6.42465H89.8262V7.43832H86.042V2.00961H89.7588V3.02328ZM75.9004 3.02328H74.1982V7.43735H73.0166V3.02328H71.3125V2.00961H75.9004V3.02328ZM79.7178 4.18149H81.9795V2.00961H83.1611V7.43735H81.9795V5.19516H79.7178V7.43735H78.5361V2.00961H79.7178V4.18149Z" fill="var(--fill-0, #666666)"/>
<path id="Union_2" d="M166.051 35.4041C166.381 35.4041 166.684 35.4532 166.961 35.5497C167.238 35.6475 167.479 35.7851 167.687 35.9627C167.894 36.1417 168.057 36.3498 168.181 36.5916C168.304 36.8321 168.379 37.0993 168.402 37.3914H167.231C167.212 37.249 167.17 37.1176 167.105 36.9989C167.041 36.8801 166.958 36.777 166.857 36.6903C166.757 36.6036 166.639 36.5347 166.505 36.4872C166.371 36.4396 166.225 36.4159 166.068 36.4159C165.766 36.4159 165.506 36.4882 165.292 36.6336C165.078 36.7791 164.915 36.9847 164.805 37.2518C164.694 37.5189 164.639 37.8367 164.639 38.2059C164.639 38.5749 164.693 38.8853 164.801 39.1551C164.909 39.425 165.071 39.6333 165.287 39.7801C165.503 39.9268 165.77 40.0017 166.09 40.0018C166.353 39.999 166.577 39.944 166.764 39.8377C166.95 39.7315 167.093 39.5887 167.193 39.4139C167.288 39.2492 167.336 39.0722 167.342 38.8807H166.086V38.0184H168.438V40.9247H167.655L167.586 40.2938H167.574C167.387 40.5174 167.17 40.6939 166.924 40.8211C166.676 40.9484 166.37 41.0125 166.006 41.0125V41.0096C165.492 41.0095 165.043 40.8974 164.659 40.6737C164.276 40.4499 163.976 40.1283 163.762 39.7088C163.548 39.2894 163.441 38.79 163.441 38.2098C163.441 37.6295 163.552 37.108 163.773 36.6913C163.995 36.2745 164.301 35.9538 164.694 35.7342C165.086 35.5148 165.539 35.4042 166.051 35.4041ZM188.355 35.4041C188.68 35.4041 188.985 35.4548 189.268 35.5555C189.55 35.6562 189.799 35.8004 190.015 35.9891C190.23 36.1779 190.403 36.403 190.533 36.6659C190.663 36.9287 190.739 37.2224 190.759 37.5467H189.585C189.563 37.3694 189.518 37.2114 189.451 37.0731C189.384 36.9346 189.296 36.8161 189.191 36.7196C189.086 36.6232 188.967 36.5482 188.831 36.4979C188.694 36.4476 188.545 36.4227 188.383 36.4227C188.082 36.4227 187.828 36.4928 187.618 36.6327C187.408 36.7725 187.248 36.9764 187.138 37.242C187.027 37.5091 186.972 37.8308 186.972 38.2069C186.972 38.5831 187.026 38.9007 187.134 39.1678C187.242 39.4349 187.401 39.6389 187.611 39.7801C187.821 39.9213 188.079 39.993 188.384 39.993C188.552 39.993 188.705 39.9676 188.842 39.9159C188.979 39.8642 189.102 39.789 189.207 39.6913C189.312 39.5934 189.399 39.4742 189.464 39.3358C189.528 39.1974 189.569 39.0419 189.584 38.87H190.757C190.741 39.1818 190.671 39.4683 190.547 39.7284C190.422 39.9885 190.251 40.2155 190.04 40.4071C189.827 40.5985 189.578 40.7471 189.293 40.8534C189.007 40.9582 188.695 41.0106 188.354 41.0106L188.355 41.0096C187.852 41.0095 187.404 40.8994 187.015 40.6786C186.624 40.4576 186.319 40.1367 186.098 39.7186C185.876 39.3005 185.767 38.7969 185.769 38.2069C185.766 37.614 185.877 37.1093 186.101 36.6913C186.325 36.2731 186.631 35.9538 187.021 35.7342C187.412 35.5148 187.856 35.4042 188.355 35.4041ZM175.186 36.5067H172.649V37.7088H174.916V38.6346H172.649V39.9081H175.253V40.9217H171.468V35.493H175.186V36.5067ZM161.033 40.9198H159.759L159.361 39.6854H157.382L156.976 40.9198H155.749L157.633 35.493H159.15L161.033 40.9198ZM181.653 39.0702H181.669V35.493H182.851V40.9198H181.666L179.406 37.3358H179.392V40.9198H178.21V35.493H179.394L181.653 39.0702ZM195.995 37.8309H196.051L197.284 35.493H198.576L196.594 39.0028V40.9198H195.453V39.0028L193.466 35.493H194.754L195.995 37.8309ZM157.688 38.7567H159.062L158.386 36.6581H158.379L157.688 38.7567Z" fill="var(--fill-0, #666666)"/>
<path id="Union_3" d="M121.189 3.10727C123.256 3.10727 125.087 3.47396 126.606 4.20395C128.125 4.93532 129.304 5.95881 130.142 7.27328C130.979 8.58913 131.408 10.119 131.434 11.8641H125.878C125.791 10.6728 125.354 9.71384 124.567 8.98813C123.779 8.26246 122.641 7.90028 121.153 7.90024C120.193 7.90024 119.388 8.0416 118.735 8.32407C118.083 8.60655 117.591 8.99614 117.258 9.49399C116.925 9.99184 116.76 10.5614 116.76 11.1991C116.76 11.715 116.899 12.1483 117.176 12.4979C117.453 12.8474 117.828 13.1431 118.301 13.3836C118.774 13.6228 119.308 13.8298 119.897 14.0018C120.488 14.1738 121.09 14.3271 121.706 14.4627L123.995 14.9969C125.681 15.3899 127.117 15.926 128.305 16.6014C129.492 17.2768 130.4 18.1278 131.028 19.1541C131.656 20.1806 131.969 21.4202 131.969 22.869C131.969 24.5777 131.542 26.0488 130.687 27.285C129.831 28.5198 128.61 29.4694 127.022 30.1336C125.435 30.7979 123.54 31.1297 121.337 31.1297L121.338 31.1327C119.062 31.1327 117.09 30.7704 115.423 30.0448C113.755 29.3204 112.466 28.2404 111.556 26.8084C110.646 25.3765 110.189 23.6034 110.188 21.4891H115.744C115.768 23.0131 116.274 24.1962 117.258 25.0379C118.242 25.8798 119.602 26.3006 121.338 26.3006C122.347 26.3006 123.209 26.1565 123.923 25.867C124.637 25.579 125.177 25.1791 125.547 24.6688C125.916 24.1584 126.101 23.5723 126.101 22.9081C126.101 22.3669 125.988 21.9148 125.76 21.5526C125.532 21.1904 125.202 20.8884 124.772 20.6493C124.341 20.4101 123.827 20.2009 123.23 20.0233C122.634 19.8457 121.972 19.6689 121.247 19.4969L118.367 18.8153C117.296 18.5817 116.306 18.271 115.395 17.8836C114.485 17.4963 113.684 17.0138 112.995 16.4364C112.306 15.8588 111.767 15.1635 111.379 14.3524C110.991 13.5413 110.798 12.5945 110.798 11.5135C110.798 9.84246 111.232 8.37699 112.099 7.11703C112.967 5.85715 114.182 4.87402 115.744 4.16782C117.307 3.4616 119.123 3.10727 121.189 3.10727ZM99.4863 10.9383C102.033 10.9383 104.079 11.5134 105.625 12.6629C107.169 13.8124 107.966 15.4069 108.015 17.4471L108.011 17.451H102.75C102.737 16.689 102.429 16.0862 101.827 15.6444C101.225 15.2027 100.481 14.9804 99.5947 14.9803C98.7827 14.9803 98.1049 15.1442 97.5645 15.4686C97.0227 15.7944 96.752 16.2277 96.752 16.7674C96.752 17.2093 96.9402 17.5852 97.3154 17.8914C97.6906 18.1991 98.2714 18.4382 99.0596 18.6102L102.714 19.3289C104.523 19.6855 105.935 20.2791 106.95 21.1082C107.965 21.9375 108.474 23.1082 108.474 24.62C108.474 25.9356 108.099 27.0709 107.349 28.0301C106.598 28.9895 105.567 29.7242 104.257 30.2332C102.946 30.7437 101.461 30.9979 99.7988 30.9979C98.0151 30.9979 96.4635 30.7395 95.1475 30.2235C93.8301 29.7075 92.7913 28.9634 92.0283 27.993C91.2653 27.0226 90.8344 25.8548 90.7363 24.4901H96.3291C96.4398 25.3136 96.8002 25.9274 97.4092 26.3329C98.0182 26.7383 98.8216 26.9412 99.8184 26.9413C100.704 26.9413 101.417 26.7847 101.959 26.4715C102.501 26.1583 102.771 25.7186 102.771 25.1522C102.771 24.6364 102.546 24.2437 102.098 23.9725C101.648 23.7027 101.055 23.4924 100.317 23.3456L96.9766 22.701C95.0206 22.3081 93.5638 21.6288 92.6104 20.6639C91.6569 19.699 91.1797 18.4791 91.1797 17.0038C91.1797 15.7508 91.5218 14.6708 92.2051 13.7674C92.8882 12.8643 93.8498 12.1664 95.0928 11.6756C96.336 11.1848 97.7994 10.9384 99.4863 10.9383ZM79.7705 10.9237C81.6899 10.9237 83.3266 11.3387 84.7168 12.1678C86.107 12.997 87.181 14.162 87.9385 15.661C88.6959 17.1601 89.0742 18.9238 89.0742 20.953V22.2616H75.7285V22.41C75.7159 23.2463 75.8794 24.0049 76.2168 24.6873C76.5556 25.3697 77.0416 25.9109 77.6758 26.3094C78.3099 26.7093 79.069 26.915 79.9551 26.9276C80.5697 26.915 81.1399 26.8141 81.6621 26.6239C82.1843 26.4337 82.6336 26.1592 83.0088 25.8026C83.384 25.446 83.6519 25.0279 83.8115 24.5497H88.9062C88.6724 25.853 88.1559 26.9861 87.3564 27.951C86.557 28.916 85.522 29.6626 84.2549 30.1913C82.9878 30.7198 81.5346 30.9842 79.8994 30.9842C77.931 30.9842 76.2231 30.5756 74.7783 29.7577C73.332 28.941 72.2187 27.7812 71.4375 26.2821C70.6563 24.783 70.2656 23.0127 70.2656 20.9725C70.2656 18.9323 70.6563 17.2334 71.4375 15.7274C72.2187 14.2213 73.3233 13.045 74.75 12.1961C76.1767 11.3487 77.851 10.9237 79.7705 10.9237ZM143.543 10.9266C145.524 10.9266 147.266 11.3415 148.73 12.1707C150.195 13 151.331 14.1648 152.136 15.6639C152.942 17.163 153.346 18.9341 153.346 20.9745C153.346 23.0145 152.945 24.7511 152.146 26.2557C151.346 27.7618 150.21 28.9266 148.74 29.7489C147.27 30.5725 145.539 30.9842 143.545 30.9842H143.543C141.562 30.9842 139.836 30.5724 138.366 29.7489C136.896 28.9252 135.758 27.7604 134.951 26.2557C134.145 24.7497 133.741 22.9894 133.741 20.9745C133.741 18.9593 134.145 17.1644 134.951 15.6639C135.756 14.1649 136.896 13 138.366 12.1707C139.836 11.3416 141.562 10.9266 143.543 10.9266ZM170.121 22.3358C170.121 23.614 170.453 24.5947 171.118 25.2772C171.783 25.9595 172.687 26.3006 173.831 26.3006C174.569 26.3006 175.224 26.1472 175.797 25.8397C176.37 25.532 176.822 25.0712 177.154 24.4559C177.486 23.842 177.652 23.0726 177.652 22.1512L177.653 22.1532V11.2196H183.34V30.6893H177.839V27.1317H177.765C177.333 28.2867 176.592 29.2175 175.539 29.9237C174.488 30.6298 173.211 30.9842 171.709 30.9842C170.319 30.9842 169.075 30.6735 167.98 30.0526C166.886 29.4317 166.024 28.5496 165.396 27.4071C164.767 26.2646 164.455 24.9065 164.455 23.3319V11.2186H170.121V22.3358ZM193.749 11.2196H197.439V15.6444H193.749V24.1258C193.749 24.7159 193.831 25.1653 193.998 25.4715C194.165 25.7791 194.407 25.987 194.728 26.0975C195.047 26.208 195.43 26.2645 195.872 26.2645C196.155 26.2645 196.426 26.2585 196.684 26.2459C196.942 26.2334 197.151 26.2284 197.311 26.2284L197.514 30.6532C197.231 30.6783 196.831 30.6985 196.314 30.7166C195.798 30.7348 195.207 30.744 194.542 30.744C193.189 30.7439 192.029 30.5494 191.063 30.1551C190.097 29.7622 189.36 29.1508 188.849 28.3202C188.338 27.4909 188.083 26.4183 188.083 25.1024V15.6444H185.35V11.2196H188.083V6.31723H193.749V11.2196ZM59.2998 3.55063C61.355 3.55063 63.1077 3.91741 64.5596 4.64731C66.0115 5.3787 67.1225 6.40487 67.8926 7.72641C68.6611 9.04781 69.0458 10.6113 69.0459 12.4178C69.0459 14.2246 68.6553 15.7735 67.874 17.0643C67.0928 18.3548 65.9673 19.3437 64.4961 20.0331C64.4166 20.0703 64.3352 20.1053 64.2539 20.1405L70.0234 30.6893H63.6738L58.5254 21.0653H54.3154V30.6873H48.5752V3.55063H59.2998ZM161.373 30.6893H155.707V3.55063H161.373V30.6893ZM143.542 15.2967C142.73 15.2967 142.016 15.524 141.401 15.9784C140.785 16.4328 140.31 17.085 139.971 17.9325C139.632 18.7799 139.462 19.7956 139.462 20.9745C139.475 22.142 139.65 23.1474 139.988 23.9891C140.327 24.8309 140.8 25.4758 141.409 25.9247C142.018 26.3736 142.73 26.5975 143.542 26.5975H143.543C144.342 26.5975 145.051 26.3736 145.666 25.9247C146.281 25.4758 146.761 24.8309 147.105 23.9891C147.45 23.1474 147.622 22.1433 147.622 20.9745C147.622 19.8054 147.45 18.7821 147.105 17.9403C146.761 17.0985 146.283 16.4472 145.674 15.9872C145.065 15.5258 144.354 15.2967 143.542 15.2967ZM79.8447 14.9784C79.0328 14.9784 78.3159 15.1689 77.6943 15.5506C77.0727 15.9324 76.5895 16.4336 76.2451 17.0545C75.9352 17.6134 75.7653 18.2244 75.7344 18.8875H83.9248C83.8996 18.1255 83.7062 17.4503 83.3438 16.8602C82.9811 16.2701 82.4952 15.8092 81.8848 15.4764C81.2743 15.1436 80.5951 14.9784 79.8447 14.9784ZM54.3154 16.4559H58.2285C59.3358 16.4559 60.2501 16.3043 60.9697 16.0038C61.6893 15.7031 62.2321 15.2547 62.5947 14.659C62.9573 14.0633 63.1387 13.3156 63.1387 12.4178C63.1386 11.5203 62.9573 10.7469 62.5947 10.1317C62.2321 9.51776 61.6866 9.05056 60.96 8.73032C60.2335 8.41163 59.318 8.25086 58.2109 8.25082H54.3154V16.4559Z" fill="var(--fill-0, black)"/>
</g>
</g>
</svg>
